# xmcd CD database file
#
# Track frame offsets:
#	150
#	10930
#	26015
#	39152
#	51675
#	76287
#	94832
#	111325
#	136345
#	149660
#	163460
#	178577
#	210652
#
# Disc length: 2846 seconds
#
# Revision: 0
# Processed by: cddbd v1.4PL0 Copyright (c) Steve Scherf et al.
# Submitted via: CDex 1.50
#
DISCID=bc0b1c0d
DTITLE=Various Artist - Virgin Mega Music Gentlemen of Jazz
DYEAR=1900
DGENRE=Jazz
TTITLE0=Steppin' Out With My Baby/Fred Astaire
TTITLE1=Easy Livin'/Chet Baker
TTITLE2=Sweet Lorraine/Nat King Cole
TTITLE3=On the Sunny Side of the Street/Bing Crosby with Lionel Hampton
TTITLE4=Lush Life/ Johnny Hartman with John Coltrane
TTITLE5=Exactly Like You/Louis Armstrong
TTITLE6=In the Still of the Night/Billy Eckstine
TTITLE7=Pretty Eyed Baby/Roy Eldridge and Dizzy Gillespie
TTITLE8=My Baby Upsets Me/Joe Williams with Count Basie and His Orchestra
TTITLE9=I Guess i'll Have to Change My Plan/Mel Torme
TTITLE10=I'm Gonna move to the Outskirts of Town/Louis Jordan
TTITLE11=You Are My Sunshine/Bill Henderson
TTITLE12=Virgin Free Radio Pay Service
EXTD=
EXTT0=
EXTT1=
EXTT2=
EXTT3=
EXTT4=
EXTT5=
EXTT6=
EXTT7=
EXTT8=
EXTT9=
EXTT10=
EXTT11=
EXTT12=
PLAYORDER=
